<mxfile host="app.diagrams.net" modified="2022-03-23T02:24:10.761Z" agent="5.0 (Macintosh; Intel Mac OS X 10_15_7) AppleWebKit/537.36 (KHTML, like Gecko) Chrome/99.0.4844.51 Safari/537.36" etag="oPi0QV4ehMytVu4DCQuD" version="17.1.5" type="github">
  <diagram id="M_yR6nfwYU1R3S8Fhv2d" name="第 1 页">
    <mxGraphModel dx="1426" dy="769" grid="1" gridSize="10" guides="1" tooltips="1" connect="1" arrows="1" fold="1" page="1" pageScale="1" pageWidth="827" pageHeight="1169" math="0" shadow="0">
      <root>
        <mxCell id="0" />
        <mxCell id="1" parent="0" />
        <mxCell id="GLQgk9DJWFtDu9FC8fig-1" value="" style="ellipse;whiteSpace=wrap;html=1;" vertex="1" parent="1">
          <mxGeometry x="260" y="140" width="120" height="80" as="geometry" />
        </mxCell>
        <mxCell id="GLQgk9DJWFtDu9FC8fig-2" value="" style="shape=cylinder3;whiteSpace=wrap;html=1;boundedLbl=1;backgroundOutline=1;size=15;" vertex="1" parent="1">
          <mxGeometry x="520" y="130" width="60" height="80" as="geometry" />
        </mxCell>
        <mxCell id="GLQgk9DJWFtDu9FC8fig-3" value="" style="shape=tape;whiteSpace=wrap;html=1;" vertex="1" parent="1">
          <mxGeometry x="430" y="420" width="120" height="100" as="geometry" />
        </mxCell>
      </root>
    </mxGraphModel>
  </diagram>
</mxfile>
